<?xml version="1.0" encoding="UTF-8" standalone="no"?>
<!-- Created with Inkscape (http://www.inkscape.org/) -->

<svg
   xmlns:dc="http://purl.org/dc/elements/1.1/"
   xmlns:cc="http://creativecommons.org/ns#"
   xmlns:rdf="http://www.w3.org/1999/02/22-rdf-syntax-ns#"
   xmlns:svg="http://www.w3.org/2000/svg"
   xmlns="http://www.w3.org/2000/svg"
   xmlns:sodipodi="http://sodipodi.sourceforge.net/DTD/sodipodi-0.dtd"
   xmlns:inkscape="http://www.inkscape.org/namespaces/inkscape"
   width="50"
   height="50"
   id="svg3816"
   version="1.1"
   inkscape:version="0.48.0 r9654"
   sodipodi:docname="next.svg">
  <defs
     id="defs3818" />
  <sodipodi:namedview
     id="base"
     pagecolor="#ffffff"
     bordercolor="#666666"
     borderopacity="1.0"
     inkscape:pageopacity="0.0"
     inkscape:pageshadow="2"
     inkscape:zoom="7.92"
     inkscape:cx="-10.19"
     inkscape:cy="30.2"
     inkscape:document-units="px"
     inkscape:current-layer="svg3816"
     showgrid="true"
     inkscape:snap-bbox="true"
     inkscape:snap-page="true"
     inkscape:window-width="1526"
     inkscape:window-height="875"
     inkscape:window-x="115"
     inkscape:window-y="98"
     inkscape:window-maximized="0"
     inkscape:snap-object-midpoints="true">
    <inkscape:grid
       type="xygrid"
       id="grid4371"
       empspacing="5"
       visible="true"
       enabled="true"
       snapvisiblegridlinesonly="true"
       dotted="false" />
  </sodipodi:namedview>
  <metadata
     id="metadata3821">
    <rdf:RDF>
      <cc:Work
         rdf:about="">
        <dc:format>image/svg+xml</dc:format>
        <dc:type
           rdf:resource="http://purl.org/dc/dcmitype/StillImage" />
        <dc:title />
      </cc:Work>
    </rdf:RDF>
  </metadata>
  <rect
     y="0.5"
     x="0.5"
     height="49"
     width="49"
     id="rect3839-2"
     style="fill:none;stroke:#000000;stroke-width:1;stroke-linejoin:round;stroke-miterlimit:4;stroke-opacity:1;stroke-dasharray:none;stroke-dashoffset:0;display:inline" />
  <path
     inkscape:connector-curvature="0"
     sodipodi:nodetypes="ccccccccccccc"
     id="path4046"
     d="m 23.13,41.99 c 0,0.3 0.53,0.59 1,0 l 16,-16 c 1,-1 1,-1 0,-2 l -16,-16.003 c -0.43,-0.598 -1,-0.2 -1,0 l 0,10.003 -13,0 c 0,0 -1,0 -1,1 l 0,12 c 0,1 1,1 1,1 l 13,0 0,10 z"
     style="fill-rule:nonzero;stroke:none" />
  <path
     inkscape:connector-curvature="0"
     style="fill-rule:nonzero;stroke:none"
     d="m 23.13,41.99 c 0,0.3 0.53,0.59 1,0 l 16,-16 c 1,-1 1,-1 0,-2 l -16,-16.003 c -0.43,-0.598 -1,-0.2 -1,0 l 0,10.003 -13,0 c 0,0 -1,0 -1,1 l 0,12 c 0,1 1,1 1,1 l 13,0 0,10 z"
     id="path9"
     sodipodi:nodetypes="ccccccccccccc" />
</svg>
