<?xml version="1.0" encoding="UTF-8" standalone="no"?>
<!-- Created with Inkscape (http://www.inkscape.org/) -->

<svg
   xmlns:dc="http://purl.org/dc/elements/1.1/"
   xmlns:cc="http://creativecommons.org/ns#"
   xmlns:rdf="http://www.w3.org/1999/02/22-rdf-syntax-ns#"
   xmlns:svg="http://www.w3.org/2000/svg"
   xmlns="http://www.w3.org/2000/svg"
   xmlns:sodipodi="http://sodipodi.sourceforge.net/DTD/sodipodi-0.dtd"
   xmlns:inkscape="http://www.inkscape.org/namespaces/inkscape"
   width="50"
   height="50"
   id="svg3816"
   version="1.1"
   inkscape:version="0.48.0 r9654"
   sodipodi:docname="save.svg">
  <defs
     id="defs3818" />
  <sodipodi:namedview
     id="base"
     pagecolor="#ffffff"
     bordercolor="#666666"
     borderopacity="1.0"
     inkscape:pageopacity="0.0"
     inkscape:pageshadow="2"
     inkscape:zoom="7.92"
     inkscape:cx="-10.19"
     inkscape:cy="30.2"
     inkscape:document-units="px"
     inkscape:current-layer="svg3816"
     showgrid="true"
     inkscape:snap-bbox="true"
     inkscape:snap-page="true"
     inkscape:window-width="1920"
     inkscape:window-height="1031"
     inkscape:window-x="-8"
     inkscape:window-y="-8"
     inkscape:window-maximized="1"
     inkscape:snap-object-midpoints="true">
    <inkscape:grid
       type="xygrid"
       id="grid4371"
       empspacing="5"
       visible="true"
       enabled="true"
       snapvisiblegridlinesonly="true"
       dotted="false" />
  </sodipodi:namedview>
  <metadata
     id="metadata3821">
    <rdf:RDF>
      <cc:Work
         rdf:about="">
        <dc:format>image/svg+xml</dc:format>
        <dc:type
           rdf:resource="http://purl.org/dc/dcmitype/StillImage" />
        <dc:title />
      </cc:Work>
    </rdf:RDF>
  </metadata>
  <rect
     y="0.5"
     x="0.5"
     height="49"
     width="49"
     id="rect3839-2"
     style="fill:none;stroke:#000000;stroke-width:1;stroke-linejoin:round;stroke-miterlimit:4;stroke-opacity:1;stroke-dasharray:none;stroke-dashoffset:0;display:inline" />
  <path
     style="font-size:medium;font-style:normal;font-variant:normal;font-weight:normal;font-stretch:normal;text-indent:0;text-align:start;text-decoration:none;line-height:normal;letter-spacing:normal;word-spacing:normal;text-transform:none;direction:ltr;block-progression:tb;writing-mode:lr-tb;text-anchor:start;baseline-shift:baseline;color:#000000;fill-opacity:1;fill-rule:nonzero;stroke:none;stroke-width:6;marker:none;visibility:visible;display:inline;overflow:visible;enable-background:accumulate;font-family:Sans;-inkscape-font-specification:Sans"
     d="M 8.688,6.5 A 3,3 0 0 0 6,9.5 l 0,27 a 3,3 0 0 0 0.875,2.12 l 4.005,4 A 3,3 0 0 0 13,43.5 l 28,0 a 3,3 0 0 0 3,-3 l 0,-31 a 3,3 0 0 0 -3,-3 l -32,0 a 3,3 0 0 0 -0.312,0 z m 3.312,6 26,0 0,25 -23.75,0 L 12,35.25 12,12.5 z"
     id="path9"
     inkscape:connector-curvature="0" />
  <path
     style="fill-rule:nonzero;stroke:none"
     d="m 40.8,40.2 -27.8,0 -3.8,-3.8 0,-26.1 31.6,0 0,29.9 z"
     id="path11"
     inkscape:connector-curvature="0" />
  <path
     style="fill:#ffffff;fill-rule:nonzero;stroke:none"
     d="m 34,38.5 c 0,1.1 -0.9,2 -2,2 l -17,0 c -1.1,0 -2,-0.9 -2,-2 l 0,-9 c 0,-1.1 0.9,-2 2,-2 l 17,0 c 1.1,0 2,0.9 2,2 l 0,9 z"
     id="path13"
     sodipodi:nodetypes="ccccccccc"
     inkscape:connector-curvature="0" />
  <path
     style="fill-rule:nonzero;stroke:none"
     d="m 22,38.5 -6,0 0,-9 6,0 0,9 z"
     id="path15"
     sodipodi:nodetypes="ccccc"
     inkscape:connector-curvature="0" />
  <path
     style="fill:#ffffff;fill-rule:nonzero;stroke:none"
     d="m 39,23.5 -28,0 0,-13 28,0 0,13 z"
     id="path17"
     sodipodi:nodetypes="ccccc"
     inkscape:connector-curvature="0" />
</svg>
