<?xml version="1.0" encoding="UTF-8" standalone="no"?>
<!-- Created with Inkscape (http://www.inkscape.org/) -->

<svg
   xmlns:dc="http://purl.org/dc/elements/1.1/"
   xmlns:cc="http://creativecommons.org/ns#"
   xmlns:rdf="http://www.w3.org/1999/02/22-rdf-syntax-ns#"
   xmlns:svg="http://www.w3.org/2000/svg"
   xmlns="http://www.w3.org/2000/svg"
   xmlns:sodipodi="http://sodipodi.sourceforge.net/DTD/sodipodi-0.dtd"
   xmlns:inkscape="http://www.inkscape.org/namespaces/inkscape"
   width="50"
   height="50"
   id="svg3816"
   version="1.1"
   inkscape:version="0.48.0 r9654"
   sodipodi:docname="empty_button.svg">
  <defs
     id="defs3818" />
  <sodipodi:namedview
     id="base"
     pagecolor="#ffffff"
     bordercolor="#666666"
     borderopacity="1.0"
     inkscape:pageopacity="0.0"
     inkscape:pageshadow="2"
     inkscape:zoom="7.92"
     inkscape:cx="-3.598"
     inkscape:cy="30.2"
     inkscape:document-units="px"
     inkscape:current-layer="svg3816"
     showgrid="true"
     inkscape:snap-bbox="true"
     inkscape:snap-page="true"
     inkscape:window-width="1526"
     inkscape:window-height="990"
     inkscape:window-x="2047"
     inkscape:window-y="72"
     inkscape:window-maximized="0">
    <inkscape:grid
       type="xygrid"
       id="grid4371"
       empspacing="5"
       visible="true"
       enabled="true"
       snapvisiblegridlinesonly="true"
       dotted="false" />
  </sodipodi:namedview>
  <metadata
     id="metadata3821">
    <rdf:RDF>
      <cc:Work
         rdf:about="">
        <dc:format>image/svg+xml</dc:format>
        <dc:type
           rdf:resource="http://purl.org/dc/dcmitype/StillImage" />
        <dc:title></dc:title>
      </cc:Work>
    </rdf:RDF>
  </metadata>
  <rect
     y="0.5"
     x="0.5"
     height="49"
     width="49"
     id="rect3839-2"
     style="fill:none;stroke:#000000;stroke-width:1;stroke-linejoin:round;stroke-miterlimit:4;stroke-opacity:1;stroke-dasharray:none;stroke-dashoffset:0;display:inline" />
  <path
     inkscape:connector-curvature="0"
     style="fill:#ff00ff;stroke:#000000;stroke-width:0.5;stroke-linecap:round;stroke-linejoin:round;stroke-miterlimit:4;stroke-opacity:1;stroke-dashoffset:0.59999999999999998;stroke-dasharray:none;fill-opacity:1"
     d="m 16.16,30.72 c 0.28,5.58 3.86,10.29 8.84,12.22 4.98,-1.93 8.56,-6.64 8.84,-12.22 -2.4,1.98 -5.48,3.16 -8.84,3.16 -3.35,0 -6.44,-1.18 -8.84,-3.16 z"
     id="path6118-9" />
  <path
     inkscape:connector-curvature="0"
     style="fill:#ffff00;stroke:#000000;stroke-width:0.5;stroke-linecap:round;stroke-linejoin:round;stroke-miterlimit:4;stroke-opacity:1;stroke-dashoffset:0.59999999999999998;stroke-dasharray:none;fill-opacity:1"
     d="m 30,16.12 c -1.76,0 -3.45,0.34 -5,0.94 5.19,2.01 8.88,7.04 8.88,12.94 0,0.25 0,0.48 0,0.72 3.1,-2.55 5.07,-6.41 5.07,-10.72 0,-0.23 0,-0.46 0,-0.69 -2.42,-1.99 -5.5,-3.19 -8.88,-3.19 z"
     id="path6118-0" />
  <path
     inkscape:connector-curvature="0"
     style="fill:#00ffff;stroke:#000000;stroke-width:0.5;stroke-linecap:round;stroke-linejoin:round;stroke-miterlimit:4;stroke-opacity:1;stroke-dashoffset:0.59999999999999998;stroke-dasharray:none;fill-opacity:1"
     d="m 19.96,16.12 c -3.37,0 -6.44,1.2 -8.84,3.19 0,0.23 0,0.46 0,0.69 0,4.3 1.97,8.14 5.04,10.69 0,-0.23 0,-0.46 0,-0.69 0,-5.9 3.69,-10.93 8.88,-12.94 -1.55,-0.6 -3.24,-0.94 -5,-0.94 z"
     id="path6116-2" />
  <path
     inkscape:connector-curvature="0"
     style="fill:#0000ff;stroke:#000000;stroke-width:0.5;stroke-linecap:round;stroke-linejoin:round;stroke-miterlimit:4;stroke-opacity:1;stroke-dashoffset:0.59999999999999998;stroke-dasharray:none;fill-opacity:1"
     d="M 11.16,19.31 C 8.087,21.86 6.125,25.71 6.125,30 c 0,7.67 6.215,13.88 13.885,13.88 1.77,0 3.45,-0.33 5.02,-0.94 -5,-1.92 -8.58,-6.62 -8.87,-12.22 -3.09,-2.55 -5.04,-6.41 -5.04,-10.72 0,-0.23 0,-0.46 0,-0.69 z"
     id="path6116" />
  <path
     inkscape:connector-curvature="0"
     style="fill:#ff0000;stroke:#000000;stroke-width:0.5;stroke-linecap:round;stroke-linejoin:round;stroke-miterlimit:4;stroke-opacity:1;stroke-dashoffset:0.59999999999999998;stroke-dasharray:none;fill-opacity:1"
     d="m 38.91,19.31 c 0,0.23 0,0.46 0,0.69 0,4.31 -1.98,8.17 -5.07,10.72 -0.29,5.6 -3.88,10.3 -8.87,12.22 1.56,0.61 3.25,0.94 5.03,0.94 7.68,0 13.91,-6.21 13.91,-13.88 0,-4.29 -1.97,-8.14 -5.03,-10.69 z"
     id="path6118" />
  <path
     inkscape:connector-curvature="0"
     style="fill:#00ff00;stroke:#000000;stroke-width:0.5;stroke-linecap:round;stroke-linejoin:round;stroke-miterlimit:4;stroke-opacity:1;stroke-dashoffset:0.59999999999999998;stroke-dasharray:none;fill-opacity:1"
     d="m 25,6.12 c -7.43,0 -13.48,5.84 -13.84,13.19 2.4,-1.99 5.47,-3.19 8.84,-3.19 1.76,0 3.45,0.34 5,0.94 1.55,-0.6 3.24,-0.94 5,-0.94 3.36,0 6.44,1.18 8.84,3.16 C 38.46,11.94 32.42,6.12 25,6.12 z"
     id="path5420-4-7" />
  <path
     inkscape:connector-curvature="0"
     style="fill:#ffffff;stroke:#000000;stroke-width:0.5;stroke-linecap:round;stroke-linejoin:round;stroke-miterlimit:4;stroke-opacity:1;stroke-dashoffset:0.59999999999999998;stroke-dasharray:none;fill-opacity:1"
     d="m 25,17.06 c -5.19,2.01 -8.88,7.04 -8.88,12.94 0,0.25 0,0.48 0,0.72 2.4,1.98 5.49,3.16 8.84,3.16 3.36,0 6.44,-1.18 8.84,-3.16 0,-0.24 0,-0.47 0,-0.72 0,-5.9 -3.69,-10.93 -8.88,-12.94 z"
     id="path6118-0-1" />
</svg>
