<?xml version="1.0" encoding="UTF-8" standalone="no"?>
<!-- Created with Inkscape (http://www.inkscape.org/) -->

<svg
   xmlns:dc="http://purl.org/dc/elements/1.1/"
   xmlns:cc="http://creativecommons.org/ns#"
   xmlns:rdf="http://www.w3.org/1999/02/22-rdf-syntax-ns#"
   xmlns:svg="http://www.w3.org/2000/svg"
   xmlns="http://www.w3.org/2000/svg"
   xmlns:sodipodi="http://sodipodi.sourceforge.net/DTD/sodipodi-0.dtd"
   xmlns:inkscape="http://www.inkscape.org/namespaces/inkscape"
   width="50"
   height="50"
   id="svg3816"
   version="1.1"
   inkscape:version="0.48.0 r9654"
   sodipodi:docname="empty_button.svg">
  <defs
     id="defs3818" />
  <sodipodi:namedview
     id="base"
     pagecolor="#ffffff"
     bordercolor="#666666"
     borderopacity="1.0"
     inkscape:pageopacity="0.0"
     inkscape:pageshadow="2"
     inkscape:zoom="5.6"
     inkscape:cx="25.66"
     inkscape:cy="37.68"
     inkscape:document-units="px"
     inkscape:current-layer="svg3816"
     showgrid="true"
     inkscape:snap-bbox="true"
     inkscape:snap-page="true"
     inkscape:window-width="1334"
     inkscape:window-height="875"
     inkscape:window-x="2280"
     inkscape:window-y="159"
     inkscape:window-maximized="0">
    <inkscape:grid
       type="xygrid"
       id="grid4371"
       empspacing="5"
       visible="true"
       enabled="true"
       snapvisiblegridlinesonly="true"
       dotted="false" />
  </sodipodi:namedview>
  <metadata
     id="metadata3821">
    <rdf:RDF>
      <cc:Work
         rdf:about="">
        <dc:format>image/svg+xml</dc:format>
        <dc:type
           rdf:resource="http://purl.org/dc/dcmitype/StillImage" />
        <dc:title></dc:title>
      </cc:Work>
    </rdf:RDF>
  </metadata>
  <rect
     y="0.5"
     x="0.5"
     height="49"
     width="49"
     id="rect3839-2"
     style="fill:none;stroke:#000000;stroke-width:1;stroke-linejoin:round;stroke-miterlimit:4;stroke-opacity:1;stroke-dasharray:none;stroke-dashoffset:0;display:inline" />
  <path
     sodipodi:type="spiral"
     style="fill:none;stroke:#000000;stroke-width:2.9864;stroke-linecap:round;stroke-linejoin:round;stroke-miterlimit:4;stroke-opacity:1;stroke-dasharray:none"
     id="path3823"
     sodipodi:cx="145"
     sodipodi:cy="35"
     sodipodi:expansion="1"
     sodipodi:revolution="2.727"
     sodipodi:radius="20"
     sodipodi:argument="-17.13"
     sodipodi:t0="0.000346"
     d="m 145,35.01 c -0.2,1.09 -1.6,0.3 -1.8,-0.29 -0.7,-1.61 0.9,-3.12 2.4,-3.35 2.6,-0.41 4.7,2 4.8,4.48 0.2,3.63 -3.1,6.39 -6.5,6.4 -4.7,0 -8.1,-4.21 -8,-8.66 0.2,-5.61 5.3,-9.73 10.8,-9.47 6.6,0.33 11.4,6.42 11,12.86 -0.5,7.58 -7.5,13.08 -15,12.52 -8.5,-0.65 -14.7,-8.63 -14,-17.04 0.8,-9.56 9.7,-16.44 19.1,-15.58 9.4,0.85 16.7,8.89 17.2,18.2"
     transform="matrix(0.8068,-0.5909,0.265,0.3618,-100.8,99.67)" />
  <text
     xml:space="preserve"
     style="font-size:21.157px;font-style:normal;font-weight:normal;line-height:125%;letter-spacing:0px;word-spacing:0px;fill:#000000;fill-opacity:1;stroke:none;font-family:Sans"
     x="3.8223155"
     y="17.458662"
     id="text4399"
     sodipodi:linespacing="125%"><tspan
       sodipodi:role="line"
       id="tspan4401"
       x="3.8223155"
       y="17.458662">+</tspan></text>
</svg>
