<?xml version="1.0" encoding="UTF-8" standalone="no"?>
<!-- Created with Inkscape (http://www.inkscape.org/) -->

<svg
   xmlns:dc="http://purl.org/dc/elements/1.1/"
   xmlns:cc="http://creativecommons.org/ns#"
   xmlns:rdf="http://www.w3.org/1999/02/22-rdf-syntax-ns#"
   xmlns:svg="http://www.w3.org/2000/svg"
   xmlns="http://www.w3.org/2000/svg"
   xmlns:sodipodi="http://sodipodi.sourceforge.net/DTD/sodipodi-0.dtd"
   xmlns:inkscape="http://www.inkscape.org/namespaces/inkscape"
   width="50"
   height="50"
   id="svg3816"
   version="1.1"
   inkscape:version="0.48.0 r9654"
   sodipodi:docname="empty_button.svg">
  <defs
     id="defs3818" />
  <sodipodi:namedview
     id="base"
     pagecolor="#ffffff"
     bordercolor="#666666"
     borderopacity="1.0"
     inkscape:pageopacity="0.0"
     inkscape:pageshadow="2"
     inkscape:zoom="7.92"
     inkscape:cx="13.99"
     inkscape:cy="30.2"
     inkscape:document-units="px"
     inkscape:current-layer="svg3816"
     showgrid="true"
     inkscape:snap-bbox="true"
     inkscape:snap-page="true"
     inkscape:window-width="1334"
     inkscape:window-height="875"
     inkscape:window-x="1932"
     inkscape:window-y="67"
     inkscape:window-maximized="0"
     inkscape:snap-object-midpoints="true">
    <inkscape:grid
       type="xygrid"
       id="grid4371"
       empspacing="5"
       visible="true"
       enabled="true"
       snapvisiblegridlinesonly="true"
       dotted="false" />
  </sodipodi:namedview>
  <metadata
     id="metadata3821">
    <rdf:RDF>
      <cc:Work
         rdf:about="">
        <dc:format>image/svg+xml</dc:format>
        <dc:type
           rdf:resource="http://purl.org/dc/dcmitype/StillImage" />
        <dc:title></dc:title>
      </cc:Work>
    </rdf:RDF>
  </metadata>
  <rect
     y="0.5"
     x="0.5"
     height="49"
     width="49"
     id="rect3839-2"
     style="fill:none;stroke:#000000;stroke-width:1;stroke-linejoin:round;stroke-miterlimit:4;stroke-opacity:1;stroke-dasharray:none;stroke-dashoffset:0;display:inline" />
  <path
     inkscape:connector-curvature="0"
     style="fill-rule:nonzero;stroke:none"
     d="M 25.52,6.051 40.63,20.95 c 1,1 1,1 0,2 l -15.01,15 c -0.93,0.1 -1,-1 -1,-1 l 0,-8 -4,0 c -1.39,0 -4,-0.2 -4,3 l 0,4 c 0,3.8 6.18,5.04 6.5,6.2 0.5,1.8 -2.5,1.8 -2.5,1.8 l -4.99,0 c -5.1,0.2 -7.005,-5.1 -7.005,-10 l 0,-7 c 0,-7.9 3.705,-12 9.995,-12 l 6,0 0,-7.999 c 0,0 0,-1 0.9,-0.9 z"
     id="path9"
     sodipodi:nodetypes="cccccccccscccccccc" />
</svg>
