<?xml version="1.0" encoding="UTF-8" standalone="no"?>
<!-- Created with Inkscape (http://www.inkscape.org/) -->

<svg
   xmlns:dc="http://purl.org/dc/elements/1.1/"
   xmlns:cc="http://creativecommons.org/ns#"
   xmlns:rdf="http://www.w3.org/1999/02/22-rdf-syntax-ns#"
   xmlns:svg="http://www.w3.org/2000/svg"
   xmlns="http://www.w3.org/2000/svg"
   xmlns:sodipodi="http://sodipodi.sourceforge.net/DTD/sodipodi-0.dtd"
   xmlns:inkscape="http://www.inkscape.org/namespaces/inkscape"
   width="300"
   height="300"
   id="svg2"
   version="1.1"
   inkscape:version="0.48.0 r9654"
   sodipodi:docname="GraphicsSettings.svg">
  <defs
     id="defs4">
    <linearGradient
       id="linearGradient3788">
      <stop
         style="stop-color:#000000;stop-opacity:1;"
         offset="0"
         id="stop3790" />
      <stop
         style="stop-color:#000000;stop-opacity:0;"
         offset="1"
         id="stop3792" />
    </linearGradient>
  </defs>
  <sodipodi:namedview
     id="base"
     pagecolor="#ffffff"
     bordercolor="#666666"
     borderopacity="1.0"
     inkscape:pageopacity="0.0"
     inkscape:pageshadow="2"
     inkscape:zoom="5.6"
     inkscape:cx="244.73653"
     inkscape:cy="75.540268"
     inkscape:document-units="px"
     inkscape:current-layer="layer1"
     showgrid="true"
     inkscape:snap-bbox="true"
     inkscape:window-width="1920"
     inkscape:window-height="1031"
     inkscape:window-x="-8"
     inkscape:window-y="-8"
     inkscape:window-maximized="1"
     inkscape:bbox-paths="true"
     inkscape:snap-bbox-midpoints="true"
     inkscape:snap-bbox-edge-midpoints="true"
     inkscape:bbox-nodes="true"
     inkscape:object-paths="true"
     inkscape:snap-smooth-nodes="true">
    <inkscape:grid
       type="xygrid"
       id="grid2985"
       empspacing="4"
       visible="true"
       enabled="true"
       snapvisiblegridlinesonly="true"
       spacingx="5px"
       spacingy="5px"
       empcolor="#ff0000"
       empopacity="0.25098039" />
  </sodipodi:namedview>
  <metadata
     id="metadata7">
    <rdf:RDF>
      <cc:Work
         rdf:about="">
        <dc:format>image/svg+xml</dc:format>
        <dc:type
           rdf:resource="http://purl.org/dc/dcmitype/StillImage" />
        <dc:title />
      </cc:Work>
    </rdf:RDF>
  </metadata>
  <g
     inkscape:label="bg"
     inkscape:groupmode="layer"
     id="layer1"
     transform="translate(0,-752.36218)">
    <path
       style="fill:#000000;fill-opacity:0.50196081;fill-rule:nonzero;stroke:none"
       d="m 20.089286,757.36218 260.000004,0 c 9.91071,0 14.91071,5 14.91071,15.35714 l 0,259.82148 c 0,9.8214 -5,14.8214 -14.73214,14.8214 l -260.089289,0 C 10,1047.3622 5,1042.3622 5,1032.7193 L 5,772.36218 c 0,-10 5,-15 15.089286,-15 z"
       id="rect2987"
       inkscape:connector-curvature="0"
       sodipodi:nodetypes="ccccccccc" />
    <path
       style="fill:none;stroke:#000000;stroke-width:0.99708879px;stroke-linecap:butt;stroke-linejoin:miter;stroke-opacity:1"
       d="m 45,976.86509 0,-84.50582 0,0 0,0"
       id="path3767"
       inkscape:connector-curvature="0" />
    <path
       style="fill:none;stroke:#000000;stroke-width:1px;stroke-linecap:butt;stroke-linejoin:miter;stroke-opacity:1"
       d="m 105,892.36218 0,85"
       id="path3769"
       inkscape:connector-curvature="0" />
    <path
       style="fill:#ffffff;fill-opacity:1;fill-rule:nonzero;stroke:#000000;stroke-width:1;stroke-linecap:round;stroke-linejoin:round;stroke-miterlimit:4;stroke-opacity:1;stroke-dasharray:none;stroke-dashoffset:0"
       d="M 220 160 C 187.03055 160 160.3125 186.60433 160.3125 219.40625 C 160.3125 252.20817 187.03055 278.78125 220 278.78125 C 252.96945 278.78125 279.6875 252.20817 279.6875 219.40625 L 279.6875 219.0625 C 279.49996 186.39351 252.83637 160 220 160 z M 220.25 170.5625 C 247.58655 170.5625 269.78137 192.63264 269.9375 219.96875 L 269.9375 220.25 C 269.9375 247.69734 247.69734 269.9375 220.25 269.9375 C 192.80266 269.9375 170.5625 247.69734 170.5625 220.25 C 170.5625 192.80266 192.80266 170.5625 220.25 170.5625 z "
       transform="translate(0,752.36218)"
       id="path3002" />
    <path
       style="fill:none;stroke:#000000;stroke-width:0.99508595px;stroke-linecap:butt;stroke-linejoin:miter;stroke-opacity:1"
       d="m 220,972.36708 0,-49.5098"
       id="path3780"
       inkscape:connector-curvature="0" />
    <path
       sodipodi:type="arc"
       style="fill:#0000ff;fill-opacity:1;fill-rule:nonzero;stroke:#000000;stroke-width:1;stroke-linecap:round;stroke-linejoin:round;stroke-miterlimit:4;stroke-opacity:1;stroke-dasharray:none;stroke-dashoffset:0"
       id="path3782"
       sodipodi:cx="217.5"
       sodipodi:cy="172.5"
       sodipodi:rx="2.5"
       sodipodi:ry="2.5"
       d="m 220,172.5 a 2.5,2.5 0 1 1 -4e-5,-0.0143"
       transform="translate(2.5,749.86218)"
       sodipodi:start="0"
       sodipodi:end="6.2774738"
       sodipodi:open="true" />
    <path
       sodipodi:type="arc"
       style="fill:#00ff00;fill-opacity:1;fill-rule:nonzero;stroke:#000000;stroke-width:1;stroke-linecap:round;stroke-linejoin:round;stroke-miterlimit:4;stroke-opacity:1;stroke-dasharray:none;stroke-dashoffset:0"
       id="path3784"
       sodipodi:cx="252.5"
       sodipodi:cy="157.5"
       sodipodi:rx="2.5"
       sodipodi:ry="2.5"
       d="m 255,157.5 a 2.5,2.5 0 1 1 -4e-5,-0.0143"
       transform="translate(-12.5,769.86218)"
       sodipodi:start="0"
       sodipodi:end="6.2774738"
       sodipodi:open="true" />
    <path
       style="fill:none;stroke:#000000;stroke-width:1px;stroke-linecap:butt;stroke-linejoin:miter;stroke-opacity:1"
       d="m 220,220 20,-45 0,0"
       id="path3786"
       inkscape:connector-curvature="0"
       transform="translate(0,752.36218)" />
  </g>
  <g
     inkscape:groupmode="layer"
     id="layer2"
     inkscape:label="btns">
    <rect
       style="fill:#000000;fill-opacity:0.50196078;fill-rule:nonzero;stroke:none"
       id="rect3759"
       width="50"
       height="50"
       x="20"
       y="230" />
    <rect
       style="fill:#000000;fill-opacity:0.50196078;fill-rule:nonzero;stroke:none"
       id="rect3761"
       width="50"
       height="50"
       x="80"
       y="230" />
    <rect
       style="fill:#000000;fill-opacity:0.50196078;fill-rule:nonzero;stroke:none"
       id="rect3763"
       width="30"
       height="5"
       x="30"
       y="220" />
    <rect
       style="fill:#000000;fill-opacity:0.50196078;fill-rule:nonzero;stroke:none"
       id="rect3765"
       width="30"
       height="5"
       x="90"
       y="220" />
    <path
       sodipodi:type="arc"
       style="fill:#ffffff;fill-opacity:1;fill-rule:nonzero;stroke:none"
       id="path3771"
       sodipodi:cx="65"
       sodipodi:cy="270"
       sodipodi:rx="5"
       sodipodi:ry="5"
       d="m 65.002761,275 a 5,5 0 1 1 -0.0015,-10 L 65,270 z"
       sodipodi:start="1.5702442"
       sodipodi:end="4.7126339"
       transform="matrix(4,0,0,4,-155,-825)" />
    <path
       sodipodi:type="arc"
       style="fill:#000000;fill-opacity:1;fill-rule:nonzero;stroke:none"
       id="path3773"
       sodipodi:cx="105"
       sodipodi:cy="255"
       sodipodi:rx="20"
       sodipodi:ry="20"
       d="m 105.01986,235.00001 a 20,20 0 0 1 0.006,39.99997"
       sodipodi:start="4.7133821"
       sodipodi:end="7.8526771"
       sodipodi:open="true" />
    <path
       sodipodi:type="arc"
       style="fill:#ffffff;fill-opacity:1;fill-rule:nonzero;stroke:none"
       id="path3777"
       sodipodi:cx="45"
       sodipodi:cy="255"
       sodipodi:rx="5"
       sodipodi:ry="5"
       d="m 50,255 a 5,5 0 1 1 -10,0 5,5 0 1 1 10,0 z"
       transform="matrix(2,0,0,2,-45,-255)" />
    <path
       style="fill:none;stroke:#ffffff;stroke-width:2;stroke-linecap:round;stroke-linejoin:miter;stroke-opacity:1;stroke-miterlimit:4;stroke-dasharray:none"
       d="m 45,235 0,5 0,0 0,0"
       id="path3783"
       inkscape:connector-curvature="0" />
    <path
       style="fill:none;stroke:#ffffff;stroke-width:2;stroke-linecap:round;stroke-linejoin:miter;stroke-opacity:1;stroke-miterlimit:4;stroke-dasharray:none"
       d="m 55,245 5,-5"
       id="path3785"
       inkscape:connector-curvature="0" />
    <path
       style="fill:none;stroke:#ffffff;stroke-width:2;stroke-linecap:round;stroke-linejoin:miter;stroke-opacity:1;stroke-miterlimit:4;stroke-dasharray:none"
       d="m 60,255 5,0"
       id="path3787"
       inkscape:connector-curvature="0" />
    <path
       style="fill:none;stroke:#ffffff;stroke-width:2;stroke-linecap:round;stroke-linejoin:miter;stroke-opacity:1;stroke-miterlimit:4;stroke-dasharray:none"
       d="m 55,265 5,5"
       id="path3789"
       inkscape:connector-curvature="0" />
    <path
       style="fill:none;stroke:#ffffff;stroke-width:2;stroke-linecap:round;stroke-linejoin:miter;stroke-opacity:1;stroke-miterlimit:4;stroke-dasharray:none"
       d="m 45,270 0,5 0,0 0,0"
       id="path3791"
       inkscape:connector-curvature="0" />
    <path
       style="fill:none;stroke:#ffffff;stroke-width:2;stroke-linecap:round;stroke-linejoin:miter;stroke-opacity:1;stroke-miterlimit:4;stroke-dasharray:none"
       d="m 35,265 -5,5 0,0"
       id="path3793"
       inkscape:connector-curvature="0" />
    <path
       style="fill:none;stroke:#ffffff;stroke-width:2;stroke-linecap:round;stroke-linejoin:miter;stroke-opacity:1;stroke-miterlimit:4;stroke-dasharray:none"
       d="m 30,255 -5,0"
       id="path3795"
       inkscape:connector-curvature="0" />
    <path
       style="fill:none;stroke:#ffffff;stroke-width:2;stroke-linecap:round;stroke-linejoin:miter;stroke-opacity:1;stroke-miterlimit:4;stroke-dasharray:none"
       d="m 35,245 -5,-5"
       id="path3797"
       inkscape:connector-curvature="0" />
  </g>
</svg>
